<?xml version="1.0" encoding="UTF-8"?>
<svg viewBox="0 0 274.98413 108.53189" xmlns="http://www.w3.org/2000/svg">
 <path d="m0 107.1c0-0.75799 6.0698-19.557 13.488-41.775s13.78-42.523 14.136-45.122c0.85035-6.204-0.90875-6.2702-5.9623-0.22461-3.9262 4.697-7.8831 5.9722-9.055 2.9182-2.0919-5.4515 1.4579-12.259 8.0774-15.49 3.7696-1.8401 5.0263-1.9501 12.678-1.1093 17.878 1.9645 29.638 12.365 29.638 26.212 0 6.7238-6.5377 13.741-13.587 14.584-6.2071 0.74198-7.3318-0.72145-3.9559-5.1474 2.6727-3.5041 2.7852-4.0677 2.198-11.014-0.70247-8.3102-3.0382-15.052-5.71-16.482-0.9977-0.53396-3.8686-0.97083-6.3798-0.97083-5.569 0-5.6541 0.55205-1.5657 10.16 1.65 3.8774 3 8.3236 3 9.8804 0 1.6232-6.4463 15.974-15.113 33.645-8.312 16.948-16.181 33.177-17.487 36.065-2.253 4.9812-4.3998 6.8704-4.3998 3.8718zm27-21.894c0-2.7842 9.4571-5.9812 37.5-12.677 7.15-1.7072 14.081-3.3426 15.402-3.6344 4.2301-0.93413 66.213-11.254 77.098-12.837 35.005-5.0891 109.65-12.75 114.75-11.776 2.8929 0.55275 2.8929 2.004 0 2.7001-3.2648 0.78561-48.503 8.1496-67.467 10.983-21.647 3.2336-83.534 13.457-115.78 19.126-55.834 9.8155-61.5 10.563-61.5 8.1154zm47.228-28.73c-4.809-4.4803-5.3356-14.721-0.96275-18.723 5.5898-5.1154 8.6868-3.3166 10.838 6.2948 1.3648 6.0987 0.71656 9.5889-2.3037 12.403-2.7466 2.5589-4.8445 2.5659-7.5713 0.02552zm28.272-4.6717c-1.1-0.30782-3.2877-1.4735-4.8616-2.5905-2.6388-1.8726-2.8274-2.4281-2.4227-7.1332 0.52218-6.0703 4.8561-15.309 9.7558-20.796 6.0723-6.8004 15.484-6.2726 11.774 0.66033-0.68497 1.28-4.0491 5.2977-7.4758 8.9282-8.8295 9.3547-9.5338 13.605-2.5748 15.537 4.8738 1.3534 9.7651 1.3411 14.805-0.03712 6.1513-1.6821 7.5-3.3878 7.5-9.4849 0-2.904 0.44714-6.456 0.99364-7.8934 1.1981-3.1513 6.3468-5.5167 12.008-5.5167 3.5643 0 4.3134-0.41962 6.073-3.4018 3.2131-5.4458 9.7571-5.926 10.1-0.74116 0.38519 5.8164-0.45654 10.73-2.276 13.285-1.0535 1.4795-2.2033 4.1292-2.5551 5.8884-0.5824 2.912-0.46971 3.1071 1.2582 2.1787 1.0438-0.56087 3.6979-2.4594 5.8979-4.219s8.275-5.3981 13.5-8.0856 11.518-6.0154 13.985-7.3954 5.6592-2.509 7.095-2.509c3.6874 0 14.481 7.2497 16.443 11.044 1.5657 3.0278 1.5419 3.2578-0.57099 5.5068-2.3629 2.5152-9.7589 5.4489-13.737 5.4489-1.9316 0-2.2756-0.35825-1.6804-1.75 1.9937-4.6618 1.6548-6.9069-1.5222-10.084-1.7413-1.7413-3.7672-3.166-4.502-3.166s-6.4376 3.4389-12.673 7.642c-20.246 13.647-27.988 16.049-39.996 12.405-4.6154-1.4004-4.7292-1.3781-12.122 2.3744-5.8192 2.9537-8.8677 3.8625-13.841 4.126-3.5078 0.18592-7.2779 0.08617-8.3779-0.22165zm47.5-15.774c0-5.784-2.6909-9.3227-5.817-7.6497-1.2006 0.64257-2.183 1.985-2.183 2.9831 0 2.4259 5.8099 10.35 7.0339 9.5939 0.53138-0.32841 0.96614-2.5457 0.96614-4.9273zm68.553 3.5336c-0.31089-0.50302 0.93529-1.842 2.7693-2.9754s3.8618-3.2181 4.5062-4.6325c1.4688-3.2237 1.5212-10.956 0.09233-13.626-1.0398-1.9429-1.1303-1.9496-2.4682-0.18426-2.5199 3.325-1.7481-3.1505 1.0286-8.6299 3.976-7.8462 4.2564-7.7469 9.7894 3.4625 4.8453 9.8161 6.1748 15.738 4.333 19.3-1.7206 3.3273-4.1292 4.6381-12.248 6.6656-7.227 1.8048-7.0778 1.7929-7.8029 0.61983zm27.791-4.6331c-2.5286-6.5893 10.768-29.356 19.904-34.08 3.4981-1.8089 4.7115-0.8093 4.7375 3.9028 0.00842 1.5262 0.91531 5.3356 2.0153 8.4653 4.1354 11.766 2.3821 15.039-10.775 20.113-8.9909 3.4673-14.935 4.0658-15.881 1.5992zm19.75-9.546c1.6914-1.6914 1.9625-2.7962 1.4108-5.75-0.3756-2.011-0.90239-3.8784-1.1706-4.1499s-1.791 1.0785-3.3839 3c-3.9566 4.7728-3.8318 8.4797 0.30004 8.9147 0.4125 0.04342 1.6922-0.86322 2.8437-2.0148zm-183.01-0.31708c-2.3117-2.4607-2.518-5.6125-0.41322-6.3132 1.9514-0.64967 7.751 5.183 7.0277 7.0678-0.9162 2.3876-3.9923 2.0367-6.6145-0.75455z"/>
</svg>
